<?xml version="1.0" encoding="UTF-8"?>
<svg id="ART" xmlns="http://www.w3.org/2000/svg" version="1.1" viewBox="0 0 150 150">
  <defs>
    <style>
      .cls-1, .cls-2 {
        fill: #fff;
        fill-rule: evenodd;
        stroke-width: 0px;
      }

      .cls-2 {
        opacity: .5;
      }
    </style>
  </defs>
  <g id="Layer_13" data-name="Layer 13">
    <path class="cls-1" d="M93.23,87.14c-5.12,7.78-8.26,17-8.73,26.32v20.07c-6.34,1.75-12.66,1.84-19,.04v-20.4c-.74-9.56-3.49-18.05-8.73-26.04,21.4,7.49,36.46,0,36.46,0ZM92.21,113.55c.76-9.62,3.75-17.48,9.53-25.14,6.9-.37,13.72-3.97,17.97-9.42,2.59-3.31,4.23-7.29,4.38-11.61,6.56-2.67,10.4-10.48,10.24-17.31-.24-9.95-7.64-15.71-16.76-17.68.32-8.74-7.34-15.63-15.32-17.59-3.17-.78-6.5-.91-9.76-.49-9.54-9.19-25.45-9.18-34.98.01-3.28-.43-6.6-.3-9.75.46-8,1.96-15.66,8.87-15.32,17.61-9.12,1.97-16.52,7.74-16.76,17.68-.16,6.83,3.68,14.64,10.24,17.31.15,4.32,1.79,8.3,4.38,11.61,4.25,5.44,11.06,9.04,17.97,9.42,5.78,7.66,8.77,15.52,9.53,25.14v25.51c13.19,4.77,21.2,4.61,34.42.06v-25.56h0ZM89.76,22.51c3.69-.57,6.83-1.18,10.65-.25,4.43,1.09,10.22,5.34,9.42,10.5l-.92,5.91,3.73.65c6.35,1.1,13.82,3,14.01,10.94.13,5.43-2.57,9.12-7.59,10.68l-2.78.87c.15,4.9.68,8.23-2.62,12.46-2.97,3.81-7.87,6.35-12.71,6.49-5.4.15-7.95-2.41-11.72-5.36-11.8,7.44-15.43,8.19-28.45,0-3.77,2.94-6.33,5.5-11.72,5.35-4.84-.14-9.74-2.69-12.71-6.49-3.3-4.23-2.76-7.56-2.62-12.46l-2.78-.87c-5.02-1.57-7.72-5.25-7.59-10.68.16-6.63,5.92-9.54,11.74-10.55l6-1.04-.92-5.91c-.8-5.15,4.93-9.43,9.39-10.52,3.8-.92,6.94-.31,10.66.26l1.39-1.43c8.05-8.25,19.07-7.9,26.75,0l1.39,1.43Z"/>
  </g>
  <path class="cls-2" d="M61.69,134.32s22.36-24.4,29.46-48.86c7.71-26.57-4.29,51.43-4.29,51.43l-25.18-2.57Z"/>
</svg>