<?xml version="1.0" encoding="UTF-8"?>
<svg id="Camada_1" data-name="Camada 1" xmlns="http://www.w3.org/2000/svg" version="1.1" viewBox="0 0 1024 1024">
  <defs>
    <style>
      .cls-1 {
        fill: #010101;
        stroke: #fff;
        stroke-miterlimit: 10;
        stroke-width: 25px;
      }

      .cls-2 {
        opacity: .4;
      }

      .cls-2, .cls-3 {
        fill: #fff;
        stroke-width: 0px;
      }
    </style>
  </defs>
  <g>
    <path class="cls-3" d="M365.49,353.6c-4.22,6.41-10.43,10.48-17.35,10.53l-12.56.09c-6.17.04-11.99-3.1-16.39-8.85-4.4-5.75-6.85-13.4-6.88-21.53l-.49-123.69c-.07-16.84,10.26-30.62,23.03-30.7l12.56-.09c6.17-.04,11.99,3.1,16.39,8.85,4.4,5.75,6.85,13.4,6.88,21.53l.49,123.69c.03,7.71-2.12,14.77-5.68,20.18ZM328.32,202.42c-1.4,2.13-2.17,4.81-2.15,7.63l.49,123.69c.03,6.39,3.99,11.57,8.83,11.53l12.56-.09c4.85-.03,8.77-5.26,8.74-11.65l-.49-123.69c-.01-3.07-.94-5.97-2.62-8.16-1.68-2.19-3.88-3.39-6.21-3.37l-12.56.09c-2.33.02-4.53,1.24-6.19,3.46-.14.18-.27.38-.4.57Z"/>
    <g>
      <path class="cls-2" d="M314.63,287.28c-1.21,23.52-17.55,43.62-40.28,49.75-9.14,2.47-44.52,10.3-78.24-1.07,13.16-.96,23.4-3.34,27.73-4.51,22.73-6.13,39.07-26.23,40.28-49.75.59-11.39,6.56-54.97-41.21-98.87-42.98-39.5-96.24-57.89-139.17-65.93,42.44,1.18,126.99,13.91,189.68,71.51,47.77,43.89,41.8,87.47,41.22,98.86Z"/>
      <path class="cls-3" d="M298.19,335.91c-6.28,4.62-13.49,8.15-21.38,10.27-12.07,3.26-74.51,17.56-118.05-20.82-44.88-39.55-72.92-91.76-88.54-128.59-9.53-22.47-15.22-40.89-18.31-52.39-6.45-23.98-4.71-27.31-3.44-29.74.3-.58.65-1.11,1.05-1.6.58-.78,1.26-1.51,2.13-2.11,1.62-1.19,5.43-3.98,29.75-3.55,12.21.22,31.78,1.44,55.68,5.99,39.53,7.54,96.38,25.46,142.75,68.07,48.42,44.49,45.39,89.47,44.39,104.25-.05.78-.1,1.48-.13,2.08-1.01,19.56-10.78,37.02-25.9,48.14ZM68.18,131.34c3,12.96,9.65,35.7,21.57,62.87,14.71,33.53,40.8,81.03,81.54,116.93,37.05,32.64,94.19,18.46,100.59,16.74,18.91-5.1,32.28-21.61,33.29-41.09.04-.69.09-1.48.15-2.38.93-13.86,3.42-50.68-38.31-89.02-41.76-38.37-93.14-55.16-128.88-62.5-29.29-6.01-53.73-6.92-67.03-6.51l-4.01.07,1.1,4.89Z"/>
      <path class="cls-3" d="M165.99,214.07s80.95,83.72,101.83,87.17c20.89,3.46,2.67-26.54,2.67-26.54,0,0-85.61-42.26-104.5-60.63Z"/>
    </g>
  </g>
  <g>
    <g>
      <path class="cls-2" d="M641.17,604.16c0,160.19-129.86,290.05-290.05,290.05-134.74,0-248.02-91.88-280.61-216.42,53.19,64.32,133.61,105.3,223.61,105.3,160.19,0,290.05-129.86,290.05-290.05,0-25.43-3.27-50.1-9.43-73.61,41.5,50.18,66.43,114.54,66.43,184.73Z"/>
      <path class="cls-3" d="M351.13,910.02c-81.7,0-158.5-31.81-216.27-89.58-57.77-57.77-89.58-134.58-89.58-216.27s31.81-158.5,89.58-216.27c57.77-57.77,134.58-89.58,216.27-89.58s158.5,31.81,216.27,89.58c57.77,57.77,89.58,134.58,89.58,216.27s-31.81,158.5-89.58,216.27c-57.77,57.77-134.58,89.58-216.27,89.58ZM351.13,329.93c-151.21,0-274.23,123.02-274.23,274.23s123.02,274.23,274.23,274.23,274.23-123.02,274.23-274.23-123.02-274.23-274.23-274.23Z"/>
    </g>
    <circle class="cls-2" cx="309.22" cy="795.88" r="28.61"/>
    <circle class="cls-2" cx="527.49" cy="581.27" r="27.53"/>
    <circle class="cls-2" cx="393.87" cy="719.58" r="22.94"/>
    <circle class="cls-2" cx="416.8" cy="588.41" r="22.94"/>
    <circle class="cls-2" cx="201" cy="719.58" r="22.94"/>
    <path class="cls-3" d="M137.17,627.35h-.02c-10.06-.16-17.79-9-16.56-18.99,1.73-14,5.4-34.72,13.19-58.29,16.6-50.22,45.13-92.51,83.02-123.31,7.61-6.19,18.9-4.48,24.5,3.57h0c5.06,7.28,3.65,17.23-3.23,22.81-63.9,51.89-79.87,127.49-83.82,159.38-1.06,8.58-8.44,14.95-17.08,14.82Z"/>
    <path class="cls-3" d="M265.68,412.04h0c-4.7-8.22-1.75-18.69,6.53-23.26,4.44-2.45,8.49-4.65,12.04-6.56,8.38-4.5,18.82-1.22,23.12,7.26h0c4.17,8.22,1.02,18.26-7.1,22.62-3.45,1.85-7.38,3.99-11.69,6.37-8.11,4.48-18.31,1.62-22.91-6.42Z"/>
  </g>
  <g>
    <line class="cls-1" x1="419.69" y1="637.14" x2="978.73" y2="637.14"/>
    <path class="cls-3" d="M949.82,637.14c0,138.2-112.42,250.63-250.62,250.63s-250.62-112.43-250.62-250.63h-28.9c0,74.66,29.08,144.86,81.87,197.65,52.8,52.8,122.99,81.87,197.64,81.87s144.86-29.08,197.65-81.87c52.79-52.79,81.87-122.99,81.87-197.65h-28.91Z"/>
    <g>
      <path class="cls-2" d="M912.54,637.14c-.01,5.6-.24,11.23-.68,16.91-1.18,14.83-3.85,29.19-7.84,42.94-1.18,4.04-2.48,8.03-3.87,11.97-.29.79-.57,1.57-.86,2.35-.29.79-.58,1.56-.88,2.35-.37.95-.74,1.89-1.11,2.84-.25.6-.49,1.2-.74,1.8-1.57,3.85-3.25,7.63-5.05,11.35-.72,1.49-1.44,2.97-2.19,4.43-.48.94-.97,1.88-1.48,2.81-.75,1.42-1.51,2.82-2.29,4.22-.42.75-.85,1.49-1.28,2.24-.86,1.49-1.73,2.97-2.62,4.43-.44.73-.89,1.47-1.35,2.19-.45.73-.91,1.44-1.37,2.17-.46.71-.93,1.44-1.41,2.16-.46.71-.94,1.42-1.42,2.13-.49.72-.97,1.42-1.45,2.12-.98,1.41-1.97,2.8-2.98,4.18-.5.69-1,1.37-1.51,2.06-.51.68-1.04,1.36-1.55,2.04-.51.68-1.04,1.36-1.57,2.03-.52.67-1.06,1.35-1.6,2-.05.07-.1.13-.15.2-1.03,1.26-2.06,2.51-3.11,3.75-1.67,2-3.4,3.97-5.17,5.89-.54.6-1.07,1.18-1.62,1.76-2.65,2.86-5.39,5.65-8.2,8.34-.54.51-1.06,1.01-1.6,1.53-.64.61-1.3,1.22-1.95,1.81-.6.55-1.19,1.1-1.8,1.63-.61.55-1.22,1.08-1.82,1.62-18.89,16.6-40.69,29.87-64.44,38.99-4.59,1.76-9.26,3.37-13.99,4.81-1.59.49-3.17.95-4.76,1.39-.8.23-1.6.44-2.4.66-.8.21-1.61.43-2.41.63-.69.18-1.37.36-2.06.51-.85.21-1.68.41-2.51.61-.1.02-.18.04-.26.06-2.43.56-4.87,1.07-7.33,1.55-.1.02-.18.04-.26.05-2.62.51-5.26.97-7.9,1.36-3.53.55-7.09,1-10.68,1.36-3.59.37-7.2.64-10.83.82-1,.06-2,.11-3,.13-1.7.06-3.42.11-5.14.13-.94.01-1.89.01-2.84.01-5.59-.01-11.21-.24-16.89-.68-24.8-1.98-48.28-8.12-69.8-17.67-1.16-.52-2.3-1.05-3.46-1.57-.11-.06-.21-.11-.32-.15-1.17-.55-2.34-1.11-3.5-1.68-.11-.05-.21-.11-.32-.15-1.2-.6-2.41-1.2-3.6-1.82-1.22-.63-2.43-1.28-3.65-1.93-1.3-.69-2.57-1.41-3.85-2.13-1.11-.63-2.22-1.28-3.31-1.93-1.07-.63-2.13-1.27-3.19-1.93-1.32-.81-2.63-1.63-3.92-2.48-.89-.57-1.79-1.16-2.67-1.76-.98-.64-1.95-1.3-2.91-1.98-.66-.45-1.31-.91-1.95-1.37-1.47-1.02-2.91-2.09-4.34-3.16-.67-.5-1.33-1-1.99-1.51-8.51-6.52-16.49-13.66-23.89-21.34-.77-.8-1.54-1.6-2.29-2.41-.27-.29-.55-.58-.82-.88-.75-.81-1.5-1.64-2.25-2.47-.02-.04-.05-.07-.07-.1-.91-1-1.79-2.01-2.66-3.03-1.78-2.06-3.5-4.15-5.2-6.27-11.82-14.84-21.69-31.25-29.25-48.83-.02-.05-.04-.11-.07-.15-1.6-3.74-3.1-7.54-4.49-11.39-.48-1.29-.93-2.59-1.37-3.89-.44-1.31-.87-2.61-1.29-3.93-.29-.88-.56-1.76-.82-2.66-.36-1.14-.69-2.29-1.02-3.44-.04-.11-.06-.21-.08-.32-.24-.81-.46-1.62-.68-2.43-.29-1.02-.55-2.05-.81-3.07,8.25,13.44,18.07,25.86,29.25,36.94,11.35,11.29,24.09,21.2,37.96,29.46,8.65,5.16,17.75,9.68,27.22,13.49,18.01,7.22,37.41,11.89,57.79,13.51,13.65,1.08,27.08.75,40.15-.88,9.82-1.23,19.44-3.18,28.78-5.82,25.44-7.17,48.93-19.38,69.21-35.55,7.52-5.98,14.6-12.53,21.15-19.56,18.57-19.83,33.11-43.56,42.22-70,1.62-4.71,3.07-9.51,4.35-14.4h62.01Z"/>
      <path class="cls-3" d="M471.48,637.14c0,60.83,23.69,118.02,66.7,161.03,43.01,43.01,100.19,66.7,161.02,66.7s118.02-23.69,161.03-66.7c43.01-43.01,66.69-100.2,66.69-161.03h-455.44ZM748.05,657.43s.04-.08.05-.12c1.45-3.5,4.86-5.78,8.65-5.78h130.52c5.61,0,10.01,4.91,9.31,10.48-4.53,36.23-18.84,69.46-40.2,96.95-3.48,4.47-10.07,4.93-14.07.93l-92.23-92.23c-2.69-2.69-3.48-6.72-2.03-10.23ZM713.6,694.69c0-3.79,2.28-7.2,5.78-8.65.04-.01.07-.02.12-.05,3.5-1.45,7.53-.66,10.23,2.03l53.08,53.08,39.15,39.15c4,4,3.54,10.59-.93,14.07-27.49,21.36-60.72,35.67-96.95,40.2-5.57.7-10.48-3.69-10.48-9.31v-130.52ZM678.92,685.99s.07.04.12.05c3.49,1.45,5.78,4.86,5.78,8.65v130.52c0,5.61-4.91,10.01-10.49,9.31-36.22-4.53-69.44-18.84-96.94-40.2-4.48-3.48-4.95-10.07-.93-14.07l10.42-10.42,81.81-81.81c2.68-2.68,6.72-3.48,10.23-2.03ZM511.14,651.54h130.52c3.79,0,7.2,2.28,8.65,5.78.01.04.02.08.05.12,1.45,3.5.66,7.53-2.03,10.23l-88.68,88.68-3.55,3.55c-4.02,4-10.61,3.54-14.07-.93-7.76-9.99-14.58-20.72-20.33-32.08-10.13-19.94-16.98-41.79-19.88-64.87-.69-5.57,3.71-10.48,9.32-10.48Z"/>
    </g>
  </g>
</svg>