<?xml version="1.0" encoding="UTF-8"?>
<svg id="ART" xmlns="http://www.w3.org/2000/svg" version="1.1" viewBox="0 0 150 150">
  <defs>
    <style>
      .cls-1 {
        opacity: .5;
      }

      .cls-2 {
        fill: #fff;
        stroke-width: 0px;
      }
    </style>
  </defs>
  <g class="cls-1">
    <path class="cls-2" d="M63.87,143.73s55.71-26.29,34.06-84.7c0,0,23.2,15.12,15.88,54.21-7.32,39.09-49.94,30.48-49.94,30.48Z"/>
  </g>
  <path class="cls-2" d="M107.86,66.32c-.42-.6-.86-1.17-1.31-1.74-.14-.18-.29-.36-.44-.54-.31-.38-.63-.75-.95-1.11-.18-.2-.35-.4-.53-.59-.31-.34-.63-.67-.95-.99-.18-.18-.36-.37-.54-.55-.41-.4-.84-.79-1.27-1.17-.24-.21-.49-.42-.73-.62-.34-.28-.68-.57-1.03-.84-.27-.21-.54-.41-.81-.61-.27-.19-.53-.39-.8-.57-.3-.21-.61-.42-.92-.62-.24-.15-.47-.3-.71-.45-.34-.21-.69-.42-1.04-.62-.09-.05-.19-.1-.29-.16-.87-.49-1.77-.93-2.68-1.35-.11-.05-.21-.1-.32-.15-.45-.2-.91-.38-1.37-.56-.15-.06-.29-.12-.44-.17-.47-.18-.95-.35-1.43-.51-.1-.03-.2-.06-.3-.1-.06-.02-.11-.04-.17-.06,0,0,0,0,0,0,1.89-5.29,8.53-13.93,20.88-15.79l5.55-.83-5.23-2.05c-4.45-1.74-10.3-2.13-16.34-1.38,0,0,0,0,0,0,1.99-4.23,4.57-8.14,7.84-10.84l4.04-3.32-5.18.68c-3.97.52-8.01,1.63-11.89,3.24,0,0,0,0,0,0,1.43-6.24,3.29-12.02,5.67-15.97l1.91-3.16-3.57.93c-6.05,1.58-12.39,6.54-17.69,13.58-5.45-7.24-11.85-12.12-17.3-13.58l-3.54-.95,1.85,3.16c2.32,3.96,4.14,9.77,5.53,16.03,0,0,0,0,0,0-3.83-1.63-7.81-2.76-11.73-3.29l-5.08-.68,3.91,3.31c3.31,2.8,5.88,6.92,7.84,11.34,0,0,0,0,0,0-6.05-1.1-11.89-.86-16.34.88l-5.18,2.04,5.51.84c12.3,1.89,18.91,10.55,20.77,15.83h0c-7.63,2.46-14.06,7.18-18.93,14.03-6.06,8.52-9.53,20.33-9.53,32.42,0,33.28,21.53,48.43,41.54,48.43h1.71c20.01,0,41.54-15.16,41.54-48.43,0-12.09-3.48-23.9-9.54-32.42ZM74.99,134.75l-11.73-11.73,11.73-11.73,11.73,11.73-11.73,11.73ZM88.14,124.44l10.51,10.51c-4.76,3.95-10.27,6.44-15.9,7.55l-6.33-6.33,11.73-11.72ZM73.58,136.16l-6.33,6.33c-5.63-1.11-11.14-3.6-15.9-7.55l10.51-10.51,11.73,11.73ZM36.99,96.75l11.73-11.73,11.72,11.72-11.72,11.73-11.72-11.72ZM47.31,109.89l-7.71,7.71c-1.85-5.27-2.93-11.39-2.98-18.41l10.69,10.69ZM36.78,94.14c.44-5.95,1.74-11.8,3.95-17.11l6.58,6.58-10.53,10.53ZM88.29,56.3c.12.04.24.08.36.12.44.16.86.33,1.29.5.17.07.35.14.52.21.4.17.79.35,1.18.53.18.09.37.17.55.26.37.19.74.38,1.11.58.18.1.37.2.55.3.36.2.71.41,1.05.63.18.11.35.22.53.34.34.22.68.45,1.01.68.06.04.12.09.18.13l-8.48,8.48-11.72-11.72,2.87-2.87c.12,0,.25.02.37.03.83.08,1.64.17,2.44.29.31.05.62.09.93.15h0c1.85.33,3.6.79,5.27,1.37ZM102.72,66.19c.09.11.19.22.29.33.25.31.5.62.74.94.13.17.27.34.4.51.22.3.44.61.66.91.14.2.28.4.42.6.2.3.4.6.59.91.14.22.28.44.41.66.18.3.36.6.54.91.13.23.27.47.4.71.17.3.33.61.49.92.13.25.25.5.38.75.12.24.24.49.36.73l-7.12,7.12-11.72-11.72,8.67-8.68s.06.05.09.08c.34.28.67.55,1,.84.07.06.14.13.21.19,1.14,1.03,2.21,2.13,3.2,3.29ZM109.95,78.74c.17.45.32.9.48,1.35.13.38.25.76.37,1.15.11.36.23.72.34,1.09.08.28.15.56.23.83.09.35.19.69.28,1.04.07.29.14.57.2.86.08.35.16.69.24,1.04.06.29.12.58.18.87.07.35.14.71.2,1.06.05.29.1.58.15.87.06.36.11.72.17,1.09.04.29.08.57.12.86.05.37.09.75.13,1.12.03.28.06.56.09.84.04.39.07.78.1,1.18,0,.05,0,.09.01.14l-10.54-10.54,6.58-6.58c.11.28.22.56.33.83.12.29.24.59.35.89ZM76.41,83.61l11.72-11.72,11.72,11.72-11.72,11.72-11.72-11.72ZM86.72,96.75l-11.72,11.72-11.72-11.72,11.72-11.72,11.72,11.72ZM81.85,50.71c.11.01.22.03.32.04-.11-.01-.21-.03-.32-.04ZM76.58,54.33l-1.59,1.59-1.59-1.59c.25,0,.49-.02.74-.02h1.71c.25,0,.48.02.73.02ZM70.71,54.47l2.87,2.87-11.72,11.72-8.48-8.48c4.72-3.36,10.47-5.56,17.33-6.11ZM74.99,58.75l11.72,11.72-11.72,11.72-11.72-11.72,11.72-11.72ZM73.58,83.61l-11.72,11.72-11.72-11.72,11.72-11.72,11.72,11.72ZM61.86,98.16l11.72,11.72-11.73,11.73-11.72-11.72,11.72-11.73ZM76.41,109.88l11.72-11.72,11.72,11.73-11.72,11.72-11.73-11.73ZM89.55,96.75l11.72-11.72,11.73,11.73-11.72,11.72-11.73-11.73ZM113.39,99.2c-.05,7.01-1.13,13.14-2.98,18.41l-7.72-7.72,10.7-10.7ZM103.2,35.02c-9.57,3.44-15.42,10.87-17.3,16.43-.68-.16-1.37-.3-2.06-.42-1.68-3.54-4.37-6.81-7.93-9.64l.19-.12c7.87-4.88,18.69-7.23,27.1-6.24ZM91.33,32.56c.24-.04.48-.09.73-.12-.24.04-.48.08-.73.12ZM90.15,32.76c-3.48.69-6.95,1.75-10.18,3.14h0c-.95-1.2-1.98-2.35-3.07-3.45,0,0,0,0,0,0,5.48-4.68,12.3-8.16,19.22-9.88-2.44,2.97-4.41,6.52-5.98,10.19ZM89.76,8.01c-1.92,4.34-3.46,9.82-4.65,15.5h0c-1.63.82-3.22,1.73-4.76,2.72,0,0,0,0,0,0-1.15-2.26-2.41-4.39-3.74-6.37h0c4.09-5.56,8.78-9.68,13.16-11.85ZM86.79,22.71s-.02,0-.03.01c0,0,.02,0,.03-.01ZM76.48,19.69c-.3-.45-.61-.88-.92-1.31.31.43.62.86.92,1.31ZM60.2,8.07c6.03,3.16,12.81,10.33,17.61,19.91,0,0,0,0,0,0-1.06.78-2.09,1.59-3.07,2.45-3.02-2.67-6.41-4.98-10.02-6.83,0,0,0,0,0,0-1.16-5.69-2.65-11.17-4.52-15.53ZM63.16,22.83c-.06-.03-.11-.05-.17-.08.06.03.11.05.17.08ZM53.78,22.59c8.9,2.26,17.65,7.54,23.44,14.62h0c-.92.48-1.83.97-2.69,1.51l-1.23.77c-1.16-.77-2.39-1.5-3.69-2.18-3.11-1.64-6.41-2.91-9.7-3.79-1.57-3.93-3.58-7.76-6.11-10.92ZM58.45,33.15c-.12-.03-.24-.06-.36-.09.12.03.24.06.36.09ZM47,35.12c6.45-.48,14.39,1.25,21.2,4.83,5.41,2.84,9.5,6.49,11.97,10.57,0,0,0,0,0,0-.7-.06-1.4-.12-2.12-.15-.73-.04-1.46-.06-2.2-.06h-1.71c-3.57,0-6.97.4-10.18,1.16-1.85-5.5-7.58-12.86-16.97-16.36ZM51.77,61.8l8.67,8.67-11.72,11.73-7.13-7.13c2.45-5.18,5.83-9.75,10.18-13.27ZM40.37,119.65l8.35-8.35,11.72,11.72-10.6,10.6c-3.87-3.59-7.14-8.24-9.48-13.97ZM74.14,143.17c-1.48,0-2.97-.1-4.46-.29l5.31-5.31,5.31,5.31c-1.48.19-2.97.29-4.45.29h-1.71ZM100.15,133.63l-10.6-10.6,11.72-11.72,8.35,8.36c-2.33,5.73-5.61,10.37-9.48,13.96Z"/>
</svg>