<?xml version="1.0" encoding="UTF-8"?>
<svg id="Camada_1" data-name="Camada 1" xmlns="http://www.w3.org/2000/svg" version="1.1" viewBox="0 0 1024 1024">
  <defs>
    <style>
      .cls-1, .cls-2 {
        fill-rule: evenodd;
      }

      .cls-1, .cls-2, .cls-3 {
        fill: #fff;
        stroke-width: 0px;
      }

      .cls-2 {
        opacity: .5;
      }
    </style>
  </defs>
  <g id="Layer_7" data-name="Layer 7">
    <path class="cls-1" d="M518.96,374.72c44.35,0,88.68-11.17,122.37-33.57,30.25,13.17,57.61,30.81,81.04,51.99,114.23,103.29,114.23,271.31,0,374.59-115.35,104.27-305.37,104.27-420.71,0-114.23-103.27-114.23-271.3,0-374.59,25.64-23.17,56.01-42.13,89.72-55.61,34.17,24.78,80.9,37.19,127.59,37.19M696.09,224.23c-42.24-6.6-76.83-9.2-116.91,9.85-2.35,1.12-5.11-.34-5.52-2.91-6.61-41.76-21.08-64.72-52.01-94.23-1.5-1.43-3.86-1.43-5.36,0-30.92,29.51-45.38,52.5-52,94.25-.41,2.57-3.17,4.03-5.52,2.91-39.47-18.75-74.23-16.53-116.92-9.86-1.97.31-3.39,2.06-3.29,4.04,1.41,29.21,3.03,50.69,20.94,76.94-31.96,14.71-61,33.87-86.16,56.62-132.98,120.2-132.98,316.99,0,437.2,131.38,118.77,345.98,118.77,477.36,0,132.98-120.2,132.98-316.99,0-437.2-22.41-20.26-47.92-37.68-75.82-51.64,20.87-27.41,23.01-50.34,24.53-81.93.1-1.99-1.33-3.73-3.29-4.04ZM652.91,261.5c-15.03,47.18-74.5,70.79-133.95,70.77-59.44,0-118.9-23.61-133.9-70.77,44.19-1.23,70.65,17.07,98.06,41.19,9.75,8.57,24.99.58,23.48-12.32-3.64-31.1-4.09-60.62,12.37-91.88,16.47,31.12,16,60.77,12.36,91.89-1.51,12.89,13.73,20.89,23.48,12.32,27.42-24.11,53.89-42.42,98.09-41.2Z"/>
  </g>
  <path class="cls-3" d="M310.56,728.9c-3.83,0-7.59-1.83-9.92-5.23-34.58-50.56-50.13-103.3-46.21-156.75,3.15-42.93,19.39-84.61,45.71-117.36,4.15-5.17,11.71-5.99,16.87-1.83,5.17,4.15,5.99,11.71,1.83,16.87-43.45,54.05-65.85,146.93,1.6,245.53,3.74,5.47,2.34,12.94-3.13,16.68-2.07,1.42-4.43,2.1-6.76,2.1Z"/>
  <path class="cls-3" d="M354.68,424.52c-3.54,0-7.05-1.56-9.42-4.56-4.11-5.2-3.23-12.74,1.97-16.86,14.58-11.53,15.3-12.04,25.92-18.16,5.74-3.31,13.08-1.34,16.39,4.4,3.31,5.74,1.34,13.08-4.4,16.39q-9.4,5.42-23.02,16.19c-2.2,1.74-4.83,2.59-7.44,2.59Z"/>
  <path class="cls-2" d="M310.55,803.69s494.84,65.17,419.38-430.43c0,0,169.77,142.33,68.59,322.4-101.18,180.06-260.85,217.79-487.98,108.04Z"/>
</svg>